<?xml version="1.0" encoding="UTF-8"?> <!-- Generator: Adobe Illustrator 24.1.0, SVG Export Plug-In . SVG Version: 6.00 Build 0) --> <svg xmlns="http://www.w3.org/2000/svg" xmlns:xlink="http://www.w3.org/1999/xlink" id="Layer_1" x="0px" y="0px" viewBox="0 0 488.3 225.3" style="enable-background:new 0 0 488.3 225.3;" xml:space="preserve"> <style type="text/css"> .st0{fill:#3E4458;} .st1{fill:#3E84F4;} </style> <path class="st0" d="M92.3,145.5l-6.8-6.1c-5.2,3.3-11.4,5.3-18.3,5.3c-19,0-32.6-14.1-32.6-31.6v-0.2c0-17.5,13.8-31.8,32.8-31.8 S100,95.2,100,112.7v0.2c0,6.5-2,12.6-5.4,17.7l6.3,5.4L92.3,145.5z M75.5,130.5l-10-8.5l8.6-9.7l10.1,9.1c1.1-2.5,1.7-5.4,1.7-8.4 v-0.2c0-10.5-7.7-19.3-18.6-19.3s-18.5,8.6-18.5,19.2v0.2c0,10.5,7.7,19.3,18.6,19.3C70.4,132.2,73.2,131.7,75.5,130.5z"></path> <path class="st0" d="M133.2,81.7h12.5l26.4,62h-65.2L133.2,81.7z"></path> <path class="st0" d="M226.2,113v-0.2c0-17.5,13.2-31.8,32.1-31.8c11.6,0,18.5,3.9,24.3,9.5l-8.6,9.9c-4.7-4.3-9.6-6.9-15.7-6.9 c-10.4,0-17.8,8.6-17.8,19.2v0.2c0,10.5,7.3,19.3,17.8,19.3c7,0,11.3-2.8,16.2-7.2l8.6,8.7c-6.3,6.8-13.4,11-25.2,11 C239.7,144.7,226.2,130.7,226.2,113z"></path> <path class="st0" d="M314.9,81.7h12.5l26.4,62h-14.1l-5.6-13.8h-26l-5.6,13.8h-13.8L314.9,81.7z M329.2,117.9l-8.2-20l-8.2,19.9 L329.2,117.9L329.2,117.9z"></path> <path class="st0" d="M363.3,82.1h14.6l16.2,26l16.2-26h14.6v61.5h-13.4v-40.2l-17.3,26.3h-0.4l-17.1-26v39.9h-13.3V82.1H363.3z"></path> <path class="st0" d="M439.6,82.1h25.1c14.7,0,23.6,8.7,23.6,21.3v0.2c0,14.2-11.1,21.6-24.9,21.6h-10.3v18.5h-13.5L439.6,82.1 L439.6,82.1z M463.9,113.1c6.8,0,10.7-4,10.7-9.3v-0.2c0-6.1-4.2-9.3-11-9.3h-10.5v18.8C453.1,113.1,463.9,113.1,463.9,113.1z"></path> <path class="st1" d="M100.9,225.3c-4.3,0-8.7-1.1-12.6-3.4l-75.8-43.8C4.8,173.7,0,165.4,0,156.4V68.9C0,60,4.8,51.6,12.6,47.1 L88.4,3.4c7.7-4.5,17.4-4.5,25.1,0l75.8,43.8C197,51.7,201.9,60,201.9,69v87.5c0,8.9-4.8,17.3-12.6,21.8l-75.8,43.8 C109.6,224.2,105.3,225.3,100.9,225.3z M100.9,14c-1.9,0-3.8,0.5-5.6,1.5L19.6,59.2c-3.4,2-5.6,5.7-5.6,9.6v87.5 c0,4,2.1,7.7,5.6,9.6l75.8,43.8c3.4,2,7.7,2,11.1,0l75.8-43.8c3.4-2,5.6-5.7,5.6-9.6V68.9c0-4-2.1-7.7-5.6-9.6l-75.8-43.8 C104.8,14.5,102.9,14,100.9,14z"></path> <polygon class="st1" points="139.5,97.9 125.2,132.2 153.7,132.2 "></polygon> </svg> 